<?xml version="1.0" encoding="UTF-8" standalone="no"?>
<!DOCTYPE svg PUBLIC "-//W3C//DTD SVG 1.1//EN"
 "http://www.w3.org/Graphics/SVG/1.1/DTD/svg11.dtd">
<!-- Generated by graphviz version 2.42.3 (20191010.1750)
 -->
<!-- Title: snakemake_dag Pages: 1 -->
<svg width="370pt" height="260pt"
 viewBox="0.00 0.00 370.00 260.00" xmlns="http://www.w3.org/2000/svg" xmlns:xlink="http://www.w3.org/1999/xlink">
<g id="graph0" class="graph" transform="scale(1 1) rotate(0) translate(4 256)">
<title>snakemake_dag</title>
<polygon fill="white" stroke="transparent" points="-4,4 -4,-256 366,-256 366,4 -4,4"/>
<!-- 0 -->
<g id="node1" class="node">
<title>0</title>
<path fill="none" stroke="#56d8d8" stroke-width="2" stroke-dasharray="5,2" d="M191.5,-36C191.5,-36 161.5,-36 161.5,-36 155.5,-36 149.5,-30 149.5,-24 149.5,-24 149.5,-12 149.5,-12 149.5,-6 155.5,0 161.5,0 161.5,0 191.5,0 191.5,0 197.5,0 203.5,-6 203.5,-12 203.5,-12 203.5,-24 203.5,-24 203.5,-30 197.5,-36 191.5,-36"/>
<text text-anchor="middle" x="176.5" y="-15.5" font-family="sans" font-size="10.00">all</text>
</g>
<!-- 1 -->
<g id="node2" class="node">
<title>1</title>
<path fill="none" stroke="#d85656" stroke-width="2" stroke-dasharray="5,2" d="M106.5,-108C106.5,-108 50.5,-108 50.5,-108 44.5,-108 38.5,-102 38.5,-96 38.5,-96 38.5,-84 38.5,-84 38.5,-78 44.5,-72 50.5,-72 50.5,-72 106.5,-72 106.5,-72 112.5,-72 118.5,-78 118.5,-84 118.5,-84 118.5,-96 118.5,-96 118.5,-102 112.5,-108 106.5,-108"/>
<text text-anchor="middle" x="78.5" y="-87.5" font-family="sans" font-size="10.00">get_blasthits</text>
</g>
<!-- 1&#45;&gt;0 -->
<g id="edge1" class="edge">
<title>1&#45;&gt;0</title>
<path fill="none" stroke="grey" stroke-width="2" d="M102.47,-71.88C115.05,-62.89 130.63,-51.76 144.25,-42.03"/>
<polygon fill="grey" stroke="grey" stroke-width="2" points="146.33,-44.85 152.43,-36.19 142.26,-39.15 146.33,-44.85"/>
</g>
<!-- 2 -->
<g id="node3" class="node">
<title>2</title>
<path fill="none" stroke="#d6d856" stroke-width="2" stroke-dasharray="5,2" d="M100,-180C100,-180 63,-180 63,-180 57,-180 51,-174 51,-168 51,-168 51,-156 51,-156 51,-150 57,-144 63,-144 63,-144 100,-144 100,-144 106,-144 112,-150 112,-156 112,-156 112,-168 112,-168 112,-174 106,-180 100,-180"/>
<text text-anchor="middle" x="81.5" y="-159.5" font-family="sans" font-size="10.00">psiblastp</text>
</g>
<!-- 2&#45;&gt;1 -->
<g id="edge4" class="edge">
<title>2&#45;&gt;1</title>
<path fill="none" stroke="grey" stroke-width="2" d="M80.76,-143.7C80.43,-135.98 80.03,-126.71 79.66,-118.11"/>
<polygon fill="grey" stroke="grey" stroke-width="2" points="83.16,-117.95 79.23,-108.1 76.16,-118.25 83.16,-117.95"/>
</g>
<!-- 3 -->
<g id="node4" class="node">
<title>3</title>
<path fill="none" stroke="#59d856" stroke-width="2" stroke-dasharray="5,2" d="M89,-252C89,-252 12,-252 12,-252 6,-252 0,-246 0,-240 0,-240 0,-228 0,-228 0,-222 6,-216 12,-216 12,-216 89,-216 89,-216 95,-216 101,-222 101,-228 101,-228 101,-240 101,-240 101,-246 95,-252 89,-252"/>
<text text-anchor="middle" x="50.5" y="-237" font-family="sans" font-size="10.00">query_fasta</text>
<text text-anchor="middle" x="50.5" y="-226" font-family="sans" font-size="10.00">query_id: P01008</text>
</g>
<!-- 3&#45;&gt;1 -->
<g id="edge5" class="edge">
<title>3&#45;&gt;1</title>
<path fill="none" stroke="grey" stroke-width="2" d="M44.79,-215.86C39.63,-197.63 33.9,-168.15 41.5,-144 44.6,-134.15 50.25,-124.53 56.22,-116.25"/>
<polygon fill="grey" stroke="grey" stroke-width="2" points="59.13,-118.21 62.46,-108.15 53.59,-113.94 59.13,-118.21"/>
</g>
<!-- 3&#45;&gt;2 -->
<g id="edge6" class="edge">
<title>3&#45;&gt;2</title>
<path fill="none" stroke="grey" stroke-width="2" d="M58.16,-215.7C61.69,-207.73 65.96,-198.1 69.87,-189.26"/>
<polygon fill="grey" stroke="grey" stroke-width="2" points="73.08,-190.67 73.93,-180.1 66.68,-187.83 73.08,-190.67"/>
</g>
<!-- 4 -->
<g id="node5" class="node">
<title>4</title>
<path fill="none" stroke="#d85656" stroke-width="2" stroke-dasharray="5,2" d="M204.5,-108C204.5,-108 148.5,-108 148.5,-108 142.5,-108 136.5,-102 136.5,-96 136.5,-96 136.5,-84 136.5,-84 136.5,-78 142.5,-72 148.5,-72 148.5,-72 204.5,-72 204.5,-72 210.5,-72 216.5,-78 216.5,-84 216.5,-84 216.5,-96 216.5,-96 216.5,-102 210.5,-108 204.5,-108"/>
<text text-anchor="middle" x="176.5" y="-87.5" font-family="sans" font-size="10.00">get_blasthits</text>
</g>
<!-- 4&#45;&gt;0 -->
<g id="edge2" class="edge">
<title>4&#45;&gt;0</title>
<path fill="none" stroke="grey" stroke-width="2" d="M176.5,-71.7C176.5,-63.98 176.5,-54.71 176.5,-46.11"/>
<polygon fill="grey" stroke="grey" stroke-width="2" points="180,-46.1 176.5,-36.1 173,-46.1 180,-46.1"/>
</g>
<!-- 5 -->
<g id="node6" class="node">
<title>5</title>
<path fill="none" stroke="#d6d856" stroke-width="2" stroke-dasharray="5,2" d="M227,-180C227,-180 190,-180 190,-180 184,-180 178,-174 178,-168 178,-168 178,-156 178,-156 178,-150 184,-144 190,-144 190,-144 227,-144 227,-144 233,-144 239,-150 239,-156 239,-156 239,-168 239,-168 239,-174 233,-180 227,-180"/>
<text text-anchor="middle" x="208.5" y="-159.5" font-family="sans" font-size="10.00">psiblastp</text>
</g>
<!-- 5&#45;&gt;4 -->
<g id="edge7" class="edge">
<title>5&#45;&gt;4</title>
<path fill="none" stroke="grey" stroke-width="2" d="M200.59,-143.7C196.95,-135.73 192.55,-126.1 188.51,-117.26"/>
<polygon fill="grey" stroke="grey" stroke-width="2" points="191.66,-115.74 184.32,-108.1 185.29,-118.65 191.66,-115.74"/>
</g>
<!-- 6 -->
<g id="node7" class="node">
<title>6</title>
<path fill="none" stroke="#59d856" stroke-width="2" stroke-dasharray="5,2" d="M222,-252C222,-252 145,-252 145,-252 139,-252 133,-246 133,-240 133,-240 133,-228 133,-228 133,-222 139,-216 145,-216 145,-216 222,-216 222,-216 228,-216 234,-222 234,-228 234,-228 234,-240 234,-240 234,-246 228,-252 222,-252"/>
<text text-anchor="middle" x="183.5" y="-237" font-family="sans" font-size="10.00">query_fasta</text>
<text text-anchor="middle" x="183.5" y="-226" font-family="sans" font-size="10.00">query_id: P22033</text>
</g>
<!-- 6&#45;&gt;4 -->
<g id="edge8" class="edge">
<title>6&#45;&gt;4</title>
<path fill="none" stroke="grey" stroke-width="2" d="M177.26,-215.59C173.93,-205.37 170.18,-192.12 168.5,-180 165.64,-159.39 167.97,-135.93 170.84,-118.28"/>
<polygon fill="grey" stroke="grey" stroke-width="2" points="174.35,-118.58 172.66,-108.12 167.46,-117.35 174.35,-118.58"/>
</g>
<!-- 6&#45;&gt;5 -->
<g id="edge9" class="edge">
<title>6&#45;&gt;5</title>
<path fill="none" stroke="grey" stroke-width="2" d="M189.68,-215.7C192.5,-207.81 195.89,-198.3 199.02,-189.55"/>
<polygon fill="grey" stroke="grey" stroke-width="2" points="202.32,-190.7 202.39,-180.1 195.73,-188.34 202.32,-190.7"/>
</g>
<!-- 7 -->
<g id="node8" class="node">
<title>7</title>
<path fill="none" stroke="#d85656" stroke-width="2" stroke-dasharray="5,2" d="M302.5,-108C302.5,-108 246.5,-108 246.5,-108 240.5,-108 234.5,-102 234.5,-96 234.5,-96 234.5,-84 234.5,-84 234.5,-78 240.5,-72 246.5,-72 246.5,-72 302.5,-72 302.5,-72 308.5,-72 314.5,-78 314.5,-84 314.5,-84 314.5,-96 314.5,-96 314.5,-102 308.5,-108 302.5,-108"/>
<text text-anchor="middle" x="274.5" y="-87.5" font-family="sans" font-size="10.00">get_blasthits</text>
</g>
<!-- 7&#45;&gt;0 -->
<g id="edge3" class="edge">
<title>7&#45;&gt;0</title>
<path fill="none" stroke="grey" stroke-width="2" d="M250.53,-71.88C237.95,-62.89 222.37,-51.76 208.75,-42.03"/>
<polygon fill="grey" stroke="grey" stroke-width="2" points="210.74,-39.15 200.57,-36.19 206.67,-44.85 210.74,-39.15"/>
</g>
<!-- 8 -->
<g id="node9" class="node">
<title>8</title>
<path fill="none" stroke="#d6d856" stroke-width="2" stroke-dasharray="5,2" d="M350,-180C350,-180 313,-180 313,-180 307,-180 301,-174 301,-168 301,-168 301,-156 301,-156 301,-150 307,-144 313,-144 313,-144 350,-144 350,-144 356,-144 362,-150 362,-156 362,-156 362,-168 362,-168 362,-174 356,-180 350,-180"/>
<text text-anchor="middle" x="331.5" y="-159.5" font-family="sans" font-size="10.00">psiblastp</text>
</g>
<!-- 8&#45;&gt;7 -->
<g id="edge10" class="edge">
<title>8&#45;&gt;7</title>
<path fill="none" stroke="grey" stroke-width="2" d="M317.41,-143.7C310.58,-135.3 302.24,-125.07 294.74,-115.86"/>
<polygon fill="grey" stroke="grey" stroke-width="2" points="297.46,-113.65 288.43,-108.1 292.03,-118.07 297.46,-113.65"/>
</g>
<!-- 9 -->
<g id="node10" class="node">
<title>9</title>
<path fill="none" stroke="#59d856" stroke-width="2" stroke-dasharray="5,2" d="M348,-252C348,-252 271,-252 271,-252 265,-252 259,-246 259,-240 259,-240 259,-228 259,-228 259,-222 265,-216 271,-216 271,-216 348,-216 348,-216 354,-216 360,-222 360,-228 360,-228 360,-240 360,-240 360,-246 354,-252 348,-252"/>
<text text-anchor="middle" x="309.5" y="-237" font-family="sans" font-size="10.00">query_fasta</text>
<text text-anchor="middle" x="309.5" y="-226" font-family="sans" font-size="10.00">query_id: P68871</text>
</g>
<!-- 9&#45;&gt;7 -->
<g id="edge11" class="edge">
<title>9&#45;&gt;7</title>
<path fill="none" stroke="grey" stroke-width="2" d="M303.05,-216C299.32,-205.69 294.72,-192.21 291.5,-180 286.11,-159.6 281.7,-136.13 278.73,-118.43"/>
<polygon fill="grey" stroke="grey" stroke-width="2" points="282.13,-117.53 277.06,-108.22 275.22,-118.65 282.13,-117.53"/>
</g>
<!-- 9&#45;&gt;8 -->
<g id="edge12" class="edge">
<title>9&#45;&gt;8</title>
<path fill="none" stroke="grey" stroke-width="2" d="M314.94,-215.7C317.39,-207.9 320.34,-198.51 323.07,-189.83"/>
<polygon fill="grey" stroke="grey" stroke-width="2" points="326.46,-190.69 326.12,-180.1 319.79,-188.59 326.46,-190.69"/>
</g>
</g>
</svg>
